<svg xmlns="http://www.w3.org/2000/svg" viewBox="0 0 200 60" fill="currentColor">
  <!-- B -->
  <path d="M10 5 L10 55 L15 55 L15 32 L35 32 C45 32 50 27 50 20 C50 13 45 8 35 8 L15 8 L15 5 L10 5 Z M15 12 L33 12 C40 12 44 15 44 20 C44 25 40 28 33 28 L15 28 L15 12 Z"/>
  <!-- Y -->
  <path d="M60 5 L60 10 L75 30 L75 55 L80 55 L80 30 L95 10 L95 5 L88 5 L77.5 22 L67 5 L60 5 Z"/>
  <!-- D -->
  <path d="M105 5 L105 55 L135 55 C155 55 165 45 165 30 C165 15 155 5 135 5 L105 5 Z M110 10 L133 10 C150 10 159 18 159 30 C159 42 150 50 133 50 L110 50 L110 10 Z"/>
</svg>