<svg width="200" height="60" viewBox="0 0 200 60" fill="none" xmlns="http://www.w3.org/2000/svg">
  <!-- Letra T -->
  <path d="M10 12 L45 12 L45 20 L32 20 L32 48 L23 48 L23 20 L10 20 Z" fill="#FFFFFF"/>
  
  <!-- Letra O com Engrenagem -->
  <g>
    <circle cx="62" cy="30" r="16" fill="none" stroke="#FFFFFF" strokeWidth="6"/>
    <g transform="translate(62, 30)">
      <!-- Dentes da engrenagem -->
      <line x1="0" y1="-8" x2="0" y2="-12" stroke="#FFFFFF" strokeWidth="2" strokeLinecap="round"/>
      <line x1="5.66" y1="-5.66" x2="8.49" y2="-8.49" stroke="#FFFFFF" strokeWidth="2" strokeLinecap="round"/>
      <line x1="8" y1="0" x2="12" y2="0" stroke="#FFFFFF" strokeWidth="2" strokeLinecap="round"/>
      <line x1="5.66" y1="5.66" x2="8.49" y2="8.49" stroke="#FFFFFF" strokeWidth="2" strokeLinecap="round"/>
      <line x1="0" y1="8" x2="0" y2="12" stroke="#FFFFFF" strokeWidth="2" strokeLinecap="round"/>
      <line x1="-5.66" y1="5.66" x2="-8.49" y2="8.49" stroke="#FFFFFF" strokeWidth="2" strokeLinecap="round"/>
      <line x1="-8" y1="0" x2="-12" y2="0" stroke="#FFFFFF" strokeWidth="2" strokeLinecap="round"/>
      <line x1="-5.66" y1="-5.66" x2="-8.49" y2="-8.49" stroke="#FFFFFF" strokeWidth="2" strokeLinecap="round"/>
      <circle cx="0" cy="0" r="4" fill="#FFFFFF"/>
    </g>
  </g>
  
  <!-- Letra R -->
  <path d="M90 12 L105 12 Q118 12 118 22 Q118 30 108 32 L120 48 L109 48 L98 33 L98 48 L90 48 Z M98 20 L98 26 L105 26 Q110 26 110 23 Q110 20 105 20 Z" fill="#FFFFFF"/>
  
  <!-- Letra Q com Chave -->
  <g>
    <circle cx="138" cy="30" r="16" fill="none" stroke="#FFFFFF" strokeWidth="6"/>
    <!-- Chave laranja atravessando -->
    <g transform="translate(138, 30) rotate(-30)">
      <rect x="-2" y="-14" width="4" height="28" fill="#FF8C42" rx="2"/>
      <circle cx="0" cy="-16" r="5" fill="none" stroke="#FF8C42" strokeWidth="2"/>
      <rect x="-2" y="14" width="5" height="3" fill="#FF8C42"/>
      <rect x="-2" y="18" width="4" height="3" fill="#FF8C42"/>
      <rect x="-2" y="22" width="5" height="3" fill="#FF8C42"/>
    </g>
  </g>
</svg>